<mxfile host="Electron" modified="2025-05-30T20:04:27.545Z" agent="Mozilla/5.0 (Windows NT 10.0; Win64; x64) AppleWebKit/537.36 (KHTML, like Gecko) draw.io/22.1.2 Chrome/114.0.5735.289 Electron/25.9.4 Safari/537.36" etag="FEOBFHP3I0lvUcJ8Z4GD" version="22.1.2" type="device">
  <diagram name="Страница — 1" id="00R3lIN3bO4PS_L97c3q">
    <mxGraphModel dx="1154" dy="577" grid="1" gridSize="10" guides="1" tooltips="1" connect="1" arrows="1" fold="1" page="1" pageScale="1" pageWidth="827" pageHeight="1169" math="0" shadow="0">
      <root>
        <mxCell id="0" />
        <mxCell id="1" parent="0" />
        <mxCell id="8vSoMtomyJ-KpTdp_CqP-1" value="Неавторизированный&lt;br&gt;пользователь" style="shape=umlActor;verticalLabelPosition=bottom;verticalAlign=top;html=1;" vertex="1" parent="1">
          <mxGeometry x="110" y="340" width="30" height="60" as="geometry" />
        </mxCell>
        <mxCell id="8vSoMtomyJ-KpTdp_CqP-2" value="" style="rounded=0;whiteSpace=wrap;html=1;" vertex="1" parent="1">
          <mxGeometry x="210" y="120" width="570" height="560" as="geometry" />
        </mxCell>
        <mxCell id="8vSoMtomyJ-KpTdp_CqP-3" value="Ввести логин и пароль" style="ellipse;whiteSpace=wrap;html=1;" vertex="1" parent="1">
          <mxGeometry x="294" y="330" width="120" height="80" as="geometry" />
        </mxCell>
        <mxCell id="8vSoMtomyJ-KpTdp_CqP-4" value="Проверка учетных данных" style="ellipse;whiteSpace=wrap;html=1;" vertex="1" parent="1">
          <mxGeometry x="500" y="330" width="120" height="80" as="geometry" />
        </mxCell>
        <mxCell id="8vSoMtomyJ-KpTdp_CqP-5" value="Успешный вход" style="ellipse;whiteSpace=wrap;html=1;" vertex="1" parent="1">
          <mxGeometry x="580" y="470" width="120" height="80" as="geometry" />
        </mxCell>
        <mxCell id="8vSoMtomyJ-KpTdp_CqP-6" value="Отказ во входе" style="ellipse;whiteSpace=wrap;html=1;" vertex="1" parent="1">
          <mxGeometry x="414" y="470" width="120" height="80" as="geometry" />
        </mxCell>
        <mxCell id="8vSoMtomyJ-KpTdp_CqP-7" value="" style="endArrow=classic;html=1;rounded=0;exitX=1;exitY=0.5;exitDx=0;exitDy=0;entryX=0;entryY=0.5;entryDx=0;entryDy=0;" edge="1" parent="1" source="8vSoMtomyJ-KpTdp_CqP-3" target="8vSoMtomyJ-KpTdp_CqP-4">
          <mxGeometry width="50" height="50" relative="1" as="geometry">
            <mxPoint x="560" y="450" as="sourcePoint" />
            <mxPoint x="610" y="400" as="targetPoint" />
          </mxGeometry>
        </mxCell>
        <mxCell id="8vSoMtomyJ-KpTdp_CqP-12" value="&amp;lt;&amp;lt;include&amp;gt;&amp;gt;" style="edgeLabel;html=1;align=center;verticalAlign=middle;resizable=0;points=[];" vertex="1" connectable="0" parent="8vSoMtomyJ-KpTdp_CqP-7">
          <mxGeometry x="0.1667" y="-1" relative="1" as="geometry">
            <mxPoint x="-14" y="-1" as="offset" />
          </mxGeometry>
        </mxCell>
        <mxCell id="8vSoMtomyJ-KpTdp_CqP-9" value="" style="endArrow=classic;html=1;rounded=0;exitX=0;exitY=1;exitDx=0;exitDy=0;entryX=0.5;entryY=0;entryDx=0;entryDy=0;" edge="1" parent="1" source="8vSoMtomyJ-KpTdp_CqP-4" target="8vSoMtomyJ-KpTdp_CqP-6">
          <mxGeometry width="50" height="50" relative="1" as="geometry">
            <mxPoint x="340" y="400" as="sourcePoint" />
            <mxPoint x="390" y="350" as="targetPoint" />
          </mxGeometry>
        </mxCell>
        <mxCell id="8vSoMtomyJ-KpTdp_CqP-13" value="&amp;lt;&amp;lt;extend&amp;gt;&amp;gt;" style="edgeLabel;html=1;align=center;verticalAlign=middle;resizable=0;points=[];" vertex="1" connectable="0" parent="8vSoMtomyJ-KpTdp_CqP-9">
          <mxGeometry x="-0.2332" relative="1" as="geometry">
            <mxPoint as="offset" />
          </mxGeometry>
        </mxCell>
        <mxCell id="8vSoMtomyJ-KpTdp_CqP-10" value="" style="endArrow=classic;html=1;rounded=0;exitX=1;exitY=1;exitDx=0;exitDy=0;entryX=0.5;entryY=0;entryDx=0;entryDy=0;" edge="1" parent="1" source="8vSoMtomyJ-KpTdp_CqP-4" target="8vSoMtomyJ-KpTdp_CqP-5">
          <mxGeometry width="50" height="50" relative="1" as="geometry">
            <mxPoint x="340" y="400" as="sourcePoint" />
            <mxPoint x="390" y="350" as="targetPoint" />
          </mxGeometry>
        </mxCell>
        <mxCell id="8vSoMtomyJ-KpTdp_CqP-14" value="&amp;lt;&amp;lt;extend&amp;gt;&amp;gt;" style="edgeLabel;html=1;align=center;verticalAlign=middle;resizable=0;points=[];" vertex="1" connectable="0" parent="8vSoMtomyJ-KpTdp_CqP-10">
          <mxGeometry x="-0.1094" y="1" relative="1" as="geometry">
            <mxPoint as="offset" />
          </mxGeometry>
        </mxCell>
        <mxCell id="8vSoMtomyJ-KpTdp_CqP-11" value="" style="endArrow=none;html=1;rounded=0;exitX=0.5;exitY=0.5;exitDx=0;exitDy=0;exitPerimeter=0;entryX=0;entryY=0.5;entryDx=0;entryDy=0;" edge="1" parent="1" source="8vSoMtomyJ-KpTdp_CqP-1" target="8vSoMtomyJ-KpTdp_CqP-3">
          <mxGeometry width="50" height="50" relative="1" as="geometry">
            <mxPoint x="340" y="400" as="sourcePoint" />
            <mxPoint x="390" y="350" as="targetPoint" />
          </mxGeometry>
        </mxCell>
      </root>
    </mxGraphModel>
  </diagram>
</mxfile>
